<svg aria-hidden="true" style="position: absolute; width: 0; height: 0; overflow: hidden;" version="1.1" xmlns="http://www.w3.org/2000/svg" xmlns:xlink="http://www.w3.org/1999/xlink">
<defs>
<symbol id="icon-3Vector4" viewBox="0 0 32 32" width="106px" height="52px">
<path fill="#afb1b8" style="fill: var(--color1, #afb1b8)" d="M23.297 12.123c-0.003-1.191-0.538-2.333-1.488-3.176s-2.238-1.317-3.581-1.32c-1.344 0.002-2.632 0.477-3.583 1.319s-1.486 1.985-1.488 3.177v6.571c0 0 10.139-1.002 10.14-6.57z"></path>
<path fill="#afb1b8" style="fill: var(--color1, #afb1b8)" d="M3.993 20.745c0.003 0.973 0.439 1.906 1.213 2.594s1.823 1.076 2.918 1.079c1.095-0.003 2.144-0.391 2.918-1.079s1.21-1.621 1.213-2.594v-5.368c0 0-8.262 0.819-8.262 5.366zM8.124 21.707c-0.214 0-0.423-0.056-0.601-0.162s-0.317-0.256-0.398-0.432c-0.082-0.176-0.103-0.369-0.062-0.556s0.145-0.358 0.296-0.492c0.151-0.135 0.344-0.226 0.554-0.263s0.427-0.018 0.625 0.055c0.198 0.073 0.367 0.196 0.486 0.354s0.182 0.344 0.182 0.534c0.001 0.127-0.027 0.252-0.081 0.369s-0.134 0.224-0.234 0.313c-0.101 0.090-0.22 0.161-0.352 0.209s-0.273 0.073-0.415 0.073z"></path>
<path fill="#afb1b8" style="fill: var(--color1, #afb1b8)" d="M10.575 12.153h-0.001c-0.952 0-1.724 0.685-1.724 1.529v0.001c0 0.844 0.772 1.529 1.724 1.529h0.001c0.952 0 1.724-0.685 1.724-1.529v-0.001c0-0.844-0.772-1.529-1.724-1.529z"></path>
<path fill="#afb1b8" style="fill: var(--color1, #afb1b8)" d="M13.693 19.328v1.369h-0.284v-1.369zM14.242 19.913v0.22h-0.627v-0.22zM14.309 19.328v0.221h-0.693v-0.221zM15.606 19.981v0.065c0 0.104-0.014 0.197-0.043 0.28s-0.069 0.153-0.12 0.212c-0.052 0.058-0.114 0.102-0.186 0.133s-0.151 0.046-0.238 0.046c-0.087 0-0.166-0.015-0.238-0.046s-0.133-0.075-0.186-0.133c-0.052-0.058-0.093-0.129-0.122-0.212s-0.043-0.176-0.043-0.28v-0.065c0-0.105 0.014-0.198 0.043-0.28s0.068-0.153 0.12-0.212c0.052-0.058 0.114-0.103 0.186-0.134s0.151-0.046 0.238-0.046c0.087 0 0.166 0.015 0.238 0.046s0.134 0.075 0.186 0.134c0.052 0.058 0.093 0.129 0.121 0.212s0.044 0.176 0.044 0.28zM15.319 20.046v-0.067c0-0.073-0.007-0.137-0.020-0.192s-0.033-0.102-0.059-0.139-0.058-0.066-0.095-0.085c-0.037-0.019-0.080-0.029-0.128-0.029s-0.091 0.010-0.128 0.029c-0.037 0.019-0.068 0.047-0.094 0.085s-0.044 0.084-0.058 0.139c-0.013 0.055-0.020 0.119-0.020 0.192v0.067c0 0.072 0.007 0.136 0.020 0.192s0.033 0.102 0.059 0.14c0.026 0.038 0.058 0.066 0.095 0.085s0.080 0.029 0.128 0.029 0.091-0.010 0.128-0.029c0.037-0.019 0.069-0.048 0.094-0.085s0.044-0.085 0.058-0.14c0.013-0.056 0.020-0.12 0.020-0.192zM16.529 20.339c0-0.024-0.004-0.046-0.011-0.066s-0.020-0.038-0.040-0.054c-0.019-0.017-0.047-0.034-0.082-0.050s-0.081-0.033-0.137-0.051c-0.063-0.020-0.122-0.043-0.178-0.068s-0.105-0.054-0.148-0.087c-0.042-0.034-0.076-0.073-0.1-0.117s-0.036-0.096-0.036-0.155c0-0.057 0.013-0.109 0.038-0.155s0.061-0.087 0.106-0.12c0.046-0.034 0.099-0.060 0.161-0.078s0.131-0.027 0.205-0.027c0.102 0 0.19 0.018 0.266 0.055s0.135 0.086 0.176 0.15c0.042 0.063 0.063 0.136 0.063 0.217h-0.282c0-0.040-0.009-0.075-0.026-0.105s-0.042-0.055-0.076-0.072c-0.034-0.018-0.076-0.026-0.127-0.026-0.049 0-0.090 0.008-0.123 0.023s-0.057 0.034-0.074 0.059c-0.016 0.025-0.025 0.052-0.025 0.083 0 0.023 0.006 0.044 0.017 0.063s0.030 0.036 0.053 0.053c0.023 0.016 0.052 0.032 0.086 0.046s0.074 0.028 0.119 0.042c0.075 0.023 0.141 0.048 0.198 0.076s0.106 0.060 0.144 0.095c0.039 0.035 0.068 0.075 0.087 0.119s0.029 0.095 0.029 0.151c0 0.060-0.012 0.113-0.035 0.16s-0.057 0.087-0.101 0.119c-0.044 0.033-0.097 0.057-0.158 0.074s-0.13 0.025-0.206 0.025c-0.068 0-0.135-0.009-0.202-0.026s-0.127-0.046-0.181-0.082c-0.054-0.036-0.097-0.083-0.129-0.139s-0.048-0.123-0.048-0.2h0.285c0 0.043 0.007 0.079 0.020 0.108s0.032 0.053 0.056 0.071c0.025 0.018 0.054 0.031 0.087 0.040s0.071 0.012 0.112 0.012c0.049 0 0.090-0.007 0.121-0.021s0.056-0.033 0.071-0.057c0.016-0.024 0.024-0.052 0.024-0.083zM17.623 19.328v1.369h-0.283v-1.369zM18.047 19.328v0.221h-1.125v-0.221zM19.134 20.477v0.22h-0.734v-0.22zM18.493 19.328v1.369h-0.284v-1.369zM19.039 19.886v0.214h-0.638v-0.214zM19.134 19.328v0.221h-0.733v-0.221zM19.3 19.328h0.514c0.105 0 0.196 0.016 0.272 0.047s0.135 0.078 0.176 0.139 0.062 0.137 0.062 0.227c0 0.073-0.013 0.136-0.038 0.189s-0.060 0.096-0.105 0.131c-0.045 0.035-0.098 0.062-0.158 0.083l-0.090 0.047h-0.447l-0.002-0.22h0.332c0.050 0 0.091-0.009 0.124-0.026s0.057-0.042 0.074-0.073c0.017-0.031 0.026-0.068 0.026-0.109 0-0.044-0.008-0.082-0.025-0.114s-0.041-0.056-0.075-0.073c-0.034-0.017-0.075-0.025-0.126-0.025h-0.23v1.148h-0.284zM20.071 20.697l-0.314-0.61 0.3-0.002 0.318 0.599v0.013zM21.563 20.209h-0.351v-0.22h0.351c0.054 0 0.098-0.009 0.133-0.026s0.059-0.043 0.075-0.075c0.016-0.032 0.024-0.068 0.024-0.108s-0.008-0.079-0.024-0.114c-0.016-0.035-0.041-0.063-0.075-0.085s-0.078-0.032-0.133-0.032h-0.253v1.148h-0.284v-1.369h0.537c0.108 0 0.2 0.019 0.277 0.058s0.137 0.091 0.178 0.159 0.062 0.145 0.062 0.232c0 0.088-0.021 0.165-0.062 0.229s-0.1 0.114-0.178 0.15c-0.077 0.035-0.17 0.053-0.277 0.053zM23.202 20.477v0.22h-0.734v-0.22zM22.56 19.328v1.369h-0.284v-1.369zM23.106 19.886v0.214h-0.638v-0.214zM23.2 19.328v0.221h-0.733v-0.221zM24.003 19.328v1.369h-0.283v-1.369zM24.427 19.328v0.221h-1.125v-0.221zM25.514 20.477v0.22h-0.734v-0.22zM24.873 19.328v1.369h-0.284v-1.369zM25.419 19.886v0.214h-0.638v-0.214zM25.513 19.328v0.221h-0.733v-0.221zM25.68 19.328h0.514c0.105 0 0.196 0.016 0.272 0.047s0.135 0.078 0.176 0.139 0.062 0.137 0.062 0.227c0 0.073-0.013 0.136-0.038 0.189s-0.060 0.096-0.105 0.131c-0.045 0.035-0.098 0.062-0.158 0.083l-0.090 0.047h-0.447l-0.002-0.22h0.332c0.050 0 0.091-0.009 0.124-0.026s0.058-0.042 0.074-0.073c0.017-0.031 0.026-0.068 0.026-0.109 0-0.044-0.008-0.082-0.025-0.114s-0.041-0.056-0.075-0.073c-0.034-0.017-0.075-0.025-0.126-0.025h-0.23v1.148h-0.284zM26.451 20.697l-0.314-0.61 0.3-0.002 0.318 0.599v0.013zM27.641 20.339c0-0.024-0.004-0.046-0.011-0.066s-0.020-0.038-0.040-0.054c-0.019-0.017-0.047-0.034-0.082-0.050s-0.081-0.033-0.137-0.051c-0.063-0.020-0.122-0.043-0.178-0.068s-0.105-0.054-0.148-0.087c-0.042-0.034-0.076-0.073-0.1-0.117s-0.036-0.096-0.036-0.155c0-0.057 0.012-0.109 0.038-0.155s0.061-0.087 0.106-0.12c0.045-0.034 0.099-0.060 0.161-0.078s0.131-0.027 0.206-0.027c0.102 0 0.19 0.018 0.266 0.055s0.135 0.086 0.176 0.15c0.042 0.063 0.063 0.136 0.063 0.217h-0.282c0-0.040-0.009-0.075-0.026-0.105s-0.042-0.055-0.076-0.072c-0.033-0.018-0.076-0.026-0.127-0.026-0.049 0-0.090 0.008-0.123 0.023s-0.057 0.034-0.074 0.059c-0.016 0.025-0.025 0.052-0.025 0.083 0 0.023 0.006 0.044 0.017 0.063s0.030 0.036 0.053 0.053 0.052 0.032 0.086 0.046c0.034 0.014 0.073 0.028 0.118 0.042 0.075 0.023 0.141 0.048 0.198 0.076s0.106 0.060 0.144 0.095c0.039 0.035 0.068 0.075 0.087 0.119s0.029 0.095 0.029 0.151c0 0.060-0.012 0.113-0.035 0.16s-0.057 0.087-0.101 0.119c-0.044 0.033-0.097 0.057-0.158 0.074s-0.13 0.025-0.205 0.025c-0.068 0-0.136-0.009-0.202-0.026s-0.127-0.046-0.181-0.082c-0.054-0.036-0.097-0.083-0.129-0.139s-0.048-0.123-0.048-0.2h0.285c0 0.043 0.007 0.079 0.020 0.108s0.032 0.053 0.056 0.071c0.025 0.018 0.054 0.031 0.087 0.040s0.071 0.012 0.112 0.012c0.049 0 0.090-0.007 0.121-0.021s0.056-0.033 0.071-0.057c0.016-0.024 0.024-0.052 0.024-0.083z"></path>
</symbol>
</defs>
</svg>
