<svg width="18" height="20" viewBox="0 0 18 20" fill="none" xmlns="http://www.w3.org/2000/svg">
<path d="M0 11.6365C0.00604098 13.6961 0.929149 15.6698 2.56761 17.1264C4.20607 18.583 6.42668 19.404 8.74418 19.4101C11.0612 19.4041 13.2814 18.5834 14.9197 17.1273C16.5581 15.6713 17.4816 13.6982 17.4884 11.639V0.281372C17.4884 0.281372 0 2.01364 0 11.6365ZM8.74418 13.6715C8.2913 13.6715 7.84859 13.5521 7.47203 13.3285C7.09548 13.1049 6.80199 12.7871 6.62868 12.4153C6.45537 12.0434 6.41002 11.6342 6.49838 11.2395C6.58673 10.8448 6.80481 10.4822 7.12505 10.1976C7.44528 9.91297 7.85328 9.71916 8.29746 9.64064C8.74164 9.56212 9.20204 9.60242 9.62045 9.75644C10.0389 9.91046 10.3965 10.1713 10.6481 10.5059C10.8997 10.8406 11.034 11.234 11.034 11.6365C11.0351 11.9044 10.9767 12.1698 10.8622 12.4176C10.7476 12.6654 10.5791 12.8906 10.3664 13.0804C10.1536 13.2702 9.90081 13.4207 9.62244 13.5235C9.34406 13.6262 9.04561 13.6791 8.74418 13.6791V13.6715Z" fill="#2196F3"/>
</svg>
