<svg xmlns="http://www.w3.org/2000/svg" xmlns:xlink="http://www.w3.org/1999/xlink" width="1080" zoomAndPan="magnify" viewBox="0 0 810 809.999993" height="1080" preserveAspectRatio="xMidYMid meet" version="1.0"><defs><clipPath id="d4b9d970bd"><path d="M 101.066406 389 L 311 389 L 311 619 L 101.066406 619 Z M 101.066406 389 " clip-rule="nonzero"/></clipPath><clipPath id="f2ed8d6050"><path d="M 224 307 L 312 307 L 312 385.960938 L 224 385.960938 Z M 224 307 " clip-rule="nonzero"/></clipPath></defs><path fill="#2196f3" d="M 589.695312 306.859375 C 589.625 276.699219 576.085938 247.792969 552.039062 226.460938 C 527.992188 205.132812 495.394531 193.117188 461.382812 193.050781 C 427.363281 193.105469 394.75 205.113281 370.691406 226.445312 C 346.632812 247.773438 333.082031 276.691406 333.015625 306.859375 L 333.015625 473.183594 C 333.015625 473.183594 589.664062 447.832031 589.695312 306.886719 Z M 589.695312 306.859375 " fill-opacity="1" fill-rule="nonzero"/><g clip-path="url(#d4b9d970bd)"><path fill="#2196f3" d="M 101.066406 525.117188 C 101.136719 549.753906 112.175781 573.367188 131.769531 590.789062 C 151.363281 608.214844 177.917969 618.035156 205.628906 618.109375 C 233.339844 618.039062 259.886719 608.21875 279.480469 590.800781 C 299.070312 573.382812 310.117188 549.78125 310.195312 525.148438 L 310.195312 389.28125 C 310.195312 389.28125 101.066406 410.003906 101.066406 525.117188 Z M 205.628906 549.460938 C 200.214844 549.460938 194.921875 548.03125 190.417969 545.359375 C 185.914062 542.683594 182.40625 538.882812 180.332031 534.433594 C 178.261719 529.984375 177.71875 525.089844 178.773438 520.367188 C 179.832031 515.648438 182.4375 511.308594 186.269531 507.90625 C 190.097656 504.5 194.976562 502.183594 200.289062 501.242188 C 205.601562 500.304688 211.105469 500.785156 216.109375 502.628906 C 221.113281 504.46875 225.390625 507.589844 228.398438 511.59375 C 231.40625 515.597656 233.011719 520.304688 233.011719 525.117188 C 233.027344 528.324219 232.328125 531.496094 230.957031 534.460938 C 229.589844 537.425781 227.574219 540.121094 225.03125 542.390625 C 222.484375 544.660156 219.460938 546.460938 216.132812 547.691406 C 212.804688 548.917969 209.234375 549.550781 205.628906 549.550781 Z M 205.628906 549.460938 " fill-opacity="1" fill-rule="nonzero"/></g><g clip-path="url(#f2ed8d6050)"><path fill="#2196f3" d="M 267.675781 307.613281 L 267.644531 307.613281 C 243.546875 307.613281 224.007812 324.945312 224.007812 346.320312 L 224.007812 346.347656 C 224.007812 367.722656 243.546875 385.054688 267.644531 385.054688 L 267.675781 385.054688 C 291.773438 385.054688 311.3125 367.722656 311.3125 346.347656 L 311.3125 346.320312 C 311.3125 324.945312 291.773438 307.613281 267.675781 307.613281 Z M 267.675781 307.613281 " fill-opacity="1" fill-rule="nonzero"/></g><path fill="#2196f3" d="M 346.605469 489.242188 L 346.605469 523.902344 L 339.414062 523.902344 L 339.414062 489.242188 Z M 360.511719 504.050781 L 360.511719 509.617188 L 344.640625 509.617188 L 344.640625 504.050781 Z M 362.1875 489.242188 L 362.1875 494.835938 L 344.640625 494.835938 L 344.640625 489.242188 Z M 395.035156 505.761719 L 395.035156 507.40625 C 395.035156 510.039062 394.675781 512.402344 393.957031 514.5 C 393.238281 516.59375 392.222656 518.378906 390.910156 519.855469 C 389.601562 521.316406 388.035156 522.433594 386.210938 523.210938 C 384.40625 523.988281 382.398438 524.378906 380.195312 524.378906 C 378.003906 524.378906 376 523.988281 374.175781 523.210938 C 372.371094 522.433594 370.804688 521.316406 369.476562 519.855469 C 368.152344 518.378906 367.121094 516.59375 366.386719 514.5 C 365.664062 512.402344 365.304688 510.039062 365.304688 507.40625 L 365.304688 505.761719 C 365.304688 503.113281 365.664062 500.75 366.386719 498.667969 C 367.105469 496.574219 368.117188 494.789062 369.429688 493.3125 C 370.757812 491.835938 372.324219 490.710938 374.128906 489.933594 C 375.949219 489.15625 377.957031 488.765625 380.144531 488.765625 C 382.351562 488.765625 384.359375 489.15625 386.164062 489.933594 C 387.984375 490.710938 389.550781 491.835938 390.863281 493.3125 C 392.191406 494.789062 393.210938 496.574219 393.933594 498.667969 C 394.667969 500.75 395.035156 503.113281 395.035156 505.761719 Z M 387.769531 507.40625 L 387.769531 505.714844 C 387.769531 503.875 387.601562 502.253906 387.265625 500.859375 C 386.929688 499.460938 386.4375 498.289062 385.78125 497.335938 C 385.125 496.382812 384.324219 495.671875 383.382812 495.195312 C 382.441406 494.703125 381.359375 494.457031 380.144531 494.457031 C 378.933594 494.457031 377.851562 494.703125 376.910156 495.195312 C 375.984375 495.671875 375.191406 496.382812 374.535156 497.335938 C 373.898438 498.289062 373.410156 499.460938 373.074219 500.859375 C 372.738281 502.253906 372.570312 503.875 372.570312 505.714844 L 372.570312 507.40625 C 372.570312 509.230469 372.738281 510.847656 373.074219 512.261719 C 373.410156 513.65625 373.90625 514.839844 374.558594 515.808594 C 375.214844 516.761719 376.015625 517.480469 376.957031 517.972656 C 377.902344 518.464844 378.980469 518.710938 380.195312 518.710938 C 381.410156 518.710938 382.488281 518.464844 383.429688 517.972656 C 384.375 517.480469 385.164062 516.761719 385.804688 515.808594 C 386.445312 514.839844 386.929688 513.65625 387.265625 512.261719 C 387.601562 510.847656 387.769531 509.230469 387.769531 507.40625 Z M 418.386719 514.832031 C 418.386719 514.214844 418.289062 513.65625 418.097656 513.164062 C 417.921875 512.65625 417.585938 512.199219 417.089844 511.785156 C 416.597656 511.355469 415.898438 510.9375 415.003906 510.523438 C 414.109375 510.109375 412.953125 509.683594 411.527344 509.238281 C 409.945312 508.730469 408.445312 508.160156 407.023438 507.523438 C 405.617188 506.890625 404.367188 506.152344 403.28125 505.308594 C 402.210938 504.453125 401.363281 503.460938 400.742188 502.335938 C 400.132812 501.207031 399.828125 499.898438 399.828125 498.40625 C 399.828125 496.964844 400.148438 495.652344 400.789062 494.480469 C 401.429688 493.289062 402.324219 492.273438 403.472656 491.433594 C 404.625 490.574219 405.984375 489.917969 407.550781 489.457031 C 409.132812 488.996094 410.867188 488.765625 412.75 488.765625 C 415.324219 488.765625 417.570312 489.226562 419.488281 490.148438 C 421.40625 491.066406 422.894531 492.328125 423.949219 493.933594 C 425.019531 495.535156 425.554688 497.367188 425.554688 499.429688 L 418.410156 499.429688 C 418.410156 498.414062 418.195312 497.527344 417.761719 496.765625 C 417.347656 495.988281 416.707031 495.375 415.84375 494.933594 C 414.996094 494.488281 413.925781 494.265625 412.632812 494.265625 C 411.386719 494.265625 410.347656 494.457031 409.515625 494.835938 C 408.683594 495.203125 408.0625 495.703125 407.644531 496.335938 C 407.230469 496.957031 407.023438 497.652344 407.023438 498.429688 C 407.023438 499.019531 407.164062 499.550781 407.453125 500.027344 C 407.757812 500.503906 408.203125 500.945312 408.796875 501.359375 C 409.386719 501.773438 410.113281 502.160156 410.976562 502.527344 C 411.839844 502.890625 412.839844 503.246094 413.976562 503.597656 C 415.875 504.167969 417.546875 504.8125 418.984375 505.523438 C 420.441406 506.238281 421.65625 507.039062 422.628906 507.929688 C 423.605469 508.816406 424.339844 509.824219 424.835938 510.953125 C 425.332031 512.078125 425.578125 513.355469 425.578125 514.785156 C 425.578125 516.292969 425.28125 517.640625 424.691406 518.832031 C 424.101562 520.019531 423.246094 521.027344 422.125 521.855469 C 421.007812 522.679688 419.671875 523.304688 418.121094 523.734375 C 416.570312 524.164062 414.839844 524.378906 412.917969 524.378906 C 411.195312 524.378906 409.492188 524.15625 407.8125 523.710938 C 406.136719 523.25 404.609375 522.558594 403.234375 521.640625 C 401.875 520.71875 400.789062 519.546875 399.972656 518.117188 C 399.160156 516.6875 398.75 515 398.75 513.046875 L 405.96875 513.046875 C 405.96875 514.125 406.136719 515.039062 406.46875 515.785156 C 406.804688 516.53125 407.277344 517.132812 407.886719 517.59375 C 408.507812 518.054688 409.242188 518.386719 410.089844 518.59375 C 410.953125 518.800781 411.898438 518.902344 412.917969 518.902344 C 414.167969 518.902344 415.1875 518.726562 415.988281 518.378906 C 416.804688 518.03125 417.402344 517.546875 417.785156 516.925781 C 418.1875 516.308594 418.386719 515.609375 418.386719 514.832031 Z M 446.078125 489.242188 L 446.078125 523.902344 L 438.910156 523.902344 L 438.910156 489.242188 Z M 456.816406 489.242188 L 456.816406 494.835938 L 428.335938 494.835938 L 428.335938 489.242188 Z M 484.339844 518.332031 L 484.339844 523.902344 L 465.757812 523.902344 L 465.757812 518.332031 Z M 468.109375 489.242188 L 468.109375 523.902344 L 460.917969 523.902344 L 460.917969 489.242188 Z M 481.917969 503.359375 L 481.917969 508.785156 L 465.757812 508.785156 L 465.757812 503.359375 Z M 484.316406 489.242188 L 484.316406 494.835938 L 465.757812 494.835938 L 465.757812 489.242188 Z M 488.535156 489.242188 L 501.554688 489.242188 C 504.222656 489.242188 506.515625 489.640625 508.433594 490.433594 C 510.367188 491.226562 511.855469 492.402344 512.894531 493.957031 C 513.933594 495.511719 514.453125 497.421875 514.453125 499.691406 C 514.453125 501.550781 514.132812 503.144531 513.492188 504.476562 C 512.871094 505.792969 511.984375 506.898438 510.832031 507.785156 C 509.699219 508.660156 508.363281 509.355469 506.828125 509.878906 L 504.550781 511.070312 L 493.234375 511.070312 L 493.1875 505.5 L 501.601562 505.5 C 502.863281 505.5 503.910156 505.277344 504.742188 504.835938 C 505.574219 504.390625 506.195312 503.769531 506.613281 502.976562 C 507.042969 502.183594 507.261719 501.265625 507.261719 500.214844 C 507.261719 499.105469 507.050781 498.144531 506.636719 497.335938 C 506.21875 496.527344 505.589844 495.90625 504.742188 495.480469 C 503.894531 495.050781 502.832031 494.835938 501.554688 494.835938 L 495.726562 494.835938 L 495.726562 523.902344 L 488.535156 523.902344 Z M 508.050781 523.902344 L 500.089844 508.453125 L 507.691406 508.40625 L 515.746094 523.566406 L 515.746094 523.902344 Z M 545.8125 511.546875 L 536.917969 511.546875 L 536.917969 505.976562 L 545.8125 505.976562 C 547.1875 505.976562 548.304688 505.753906 549.167969 505.308594 C 550.03125 504.851562 550.660156 504.214844 551.0625 503.40625 C 551.460938 502.597656 551.660156 501.683594 551.660156 500.667969 C 551.660156 499.636719 551.460938 498.675781 551.0625 497.789062 C 550.660156 496.898438 550.03125 496.1875 549.167969 495.644531 C 548.304688 495.105469 547.1875 494.835938 545.8125 494.835938 L 539.410156 494.835938 L 539.410156 523.902344 L 532.21875 523.902344 L 532.21875 489.242188 L 545.8125 489.242188 C 548.542969 489.242188 550.886719 489.734375 552.835938 490.71875 C 554.800781 491.6875 556.304688 493.027344 557.34375 494.742188 C 558.382812 496.457031 558.902344 498.414062 558.902344 500.621094 C 558.902344 502.859375 558.382812 504.792969 557.34375 506.429688 C 556.304688 508.0625 554.800781 509.324219 552.835938 510.214844 C 550.886719 511.101562 548.542969 511.546875 545.8125 511.546875 Z M 587.289062 518.332031 L 587.289062 523.902344 L 568.707031 523.902344 L 568.707031 518.332031 Z M 571.054688 489.242188 L 571.054688 523.902344 L 563.863281 523.902344 L 563.863281 489.242188 Z M 584.867188 503.359375 L 584.867188 508.785156 L 568.707031 508.785156 L 568.707031 503.359375 Z M 587.261719 489.242188 L 587.261719 494.835938 L 568.707031 494.835938 L 568.707031 489.242188 Z M 607.570312 489.242188 L 607.570312 523.902344 L 600.402344 523.902344 L 600.402344 489.242188 Z M 618.308594 489.242188 L 618.308594 494.835938 L 589.828125 494.835938 L 589.828125 489.242188 Z M 645.832031 518.332031 L 645.832031 523.902344 L 627.253906 523.902344 L 627.253906 518.332031 Z M 629.601562 489.242188 L 629.601562 523.902344 L 622.410156 523.902344 L 622.410156 489.242188 Z M 643.410156 503.359375 L 643.410156 508.785156 L 627.253906 508.785156 L 627.253906 503.359375 Z M 645.808594 489.242188 L 645.808594 494.835938 L 627.253906 494.835938 L 627.253906 489.242188 Z M 650.027344 489.242188 L 663.046875 489.242188 C 665.714844 489.242188 668.011719 489.640625 669.925781 490.433594 C 671.863281 491.226562 673.347656 492.402344 674.386719 493.957031 C 675.425781 495.511719 675.945312 497.421875 675.945312 499.691406 C 675.945312 501.550781 675.625 503.144531 674.988281 504.476562 C 674.363281 505.792969 673.476562 506.898438 672.324219 507.785156 C 671.191406 508.660156 669.855469 509.355469 668.320312 509.878906 L 666.042969 511.070312 L 654.726562 511.070312 L 654.679688 505.5 L 663.09375 505.5 C 664.359375 505.5 665.40625 505.277344 666.234375 504.835938 C 667.066406 504.390625 667.691406 503.769531 668.105469 502.976562 C 668.535156 502.183594 668.753906 501.265625 668.753906 500.214844 C 668.753906 499.105469 668.546875 498.144531 668.128906 497.335938 C 667.714844 496.527344 667.082031 495.90625 666.234375 495.480469 C 665.386719 495.050781 664.324219 494.835938 663.046875 494.835938 L 657.222656 494.835938 L 657.222656 523.902344 L 650.027344 523.902344 Z M 669.542969 523.902344 L 661.585938 508.453125 L 669.183594 508.40625 L 677.238281 523.566406 L 677.238281 523.902344 Z M 699.65625 514.832031 C 699.65625 514.214844 699.558594 513.65625 699.367188 513.164062 C 699.191406 512.65625 698.855469 512.199219 698.359375 511.785156 C 697.867188 511.355469 697.171875 510.9375 696.277344 510.523438 C 695.382812 510.109375 694.222656 509.683594 692.800781 509.238281 C 691.21875 508.730469 689.714844 508.160156 688.292969 507.523438 C 686.886719 506.890625 685.640625 506.152344 684.550781 505.308594 C 683.480469 504.453125 682.632812 503.460938 682.011719 502.335938 C 681.402344 501.207031 681.101562 499.898438 681.101562 498.40625 C 681.101562 496.964844 681.417969 495.652344 682.058594 494.480469 C 682.699219 493.289062 683.59375 492.273438 684.746094 491.433594 C 685.894531 490.574219 687.253906 489.917969 688.820312 489.457031 C 690.402344 488.996094 692.136719 488.765625 694.023438 488.765625 C 696.59375 488.765625 698.839844 489.226562 700.757812 490.148438 C 702.675781 491.066406 704.164062 492.328125 705.21875 493.933594 C 706.289062 495.535156 706.824219 497.367188 706.824219 499.429688 L 699.679688 499.429688 C 699.679688 498.414062 699.464844 497.527344 699.03125 496.765625 C 698.617188 495.988281 697.976562 495.375 697.113281 494.933594 C 696.269531 494.488281 695.195312 494.265625 693.902344 494.265625 C 692.65625 494.265625 691.617188 494.457031 690.785156 494.835938 C 689.953125 495.203125 689.332031 495.703125 688.914062 496.335938 C 688.5 496.957031 688.292969 497.652344 688.292969 498.429688 C 688.292969 499.019531 688.4375 499.550781 688.722656 500.027344 C 689.027344 500.503906 689.476562 500.945312 690.066406 501.359375 C 690.65625 501.773438 691.386719 502.160156 692.25 502.527344 C 693.109375 502.890625 694.109375 503.246094 695.246094 503.597656 C 697.148438 504.167969 698.816406 504.8125 700.253906 505.523438 C 701.710938 506.238281 702.925781 507.039062 703.898438 507.929688 C 704.875 508.816406 705.609375 509.824219 706.105469 510.953125 C 706.601562 512.078125 706.847656 513.355469 706.847656 514.785156 C 706.847656 516.292969 706.554688 517.640625 705.960938 518.832031 C 705.371094 520.019531 704.515625 521.027344 703.394531 521.855469 C 702.277344 522.679688 700.941406 523.304688 699.390625 523.734375 C 697.84375 524.164062 696.109375 524.378906 694.191406 524.378906 C 692.464844 524.378906 690.761719 524.15625 689.082031 523.710938 C 687.40625 523.25 685.878906 522.558594 684.503906 521.640625 C 683.144531 520.71875 682.058594 519.546875 681.242188 518.117188 C 680.429688 516.6875 680.019531 515 680.019531 513.046875 L 687.238281 513.046875 C 687.238281 514.125 687.40625 515.039062 687.742188 515.785156 C 688.078125 516.53125 688.546875 517.132812 689.15625 517.59375 C 689.777344 518.054688 690.515625 518.386719 691.359375 518.59375 C 692.222656 518.800781 693.167969 518.902344 694.191406 518.902344 C 695.4375 518.902344 696.460938 518.726562 697.257812 518.378906 C 698.074219 518.03125 698.671875 517.546875 699.058594 516.925781 C 699.457031 516.308594 699.65625 515.609375 699.65625 514.832031 Z M 699.65625 514.832031 " fill-opacity="1" fill-rule="nonzero"/></svg>